<svg viewBox="0 0 512 512" xmlns="http://www.w3.org/2000/svg">
  <g>
    <path
      d="M512,256c0,141.4-114.6,256-256,256C114.6,512,0,397.4,0,256C0,114.6,114.6,0,256,0   C397.4,0,512,114.6,512,256z"
      fill="#35465C"
    />
    <path
      d="M347.8,391.5c-12.9,6.1-24.6,10.3-35.1,12.8   c-10.5,2.4-21.8,3.7-33.9,3.7c-13.8,0-26-1.7-36.6-5.2c-10.6-3.5-19.7-8.5-27.2-14.9c-7.5-6.5-12.7-13.3-15.6-20.6   c-2.9-7.3-4.3-17.8-4.3-31.6V229.7h-33.1v-43c11.8-3.9,22-9.4,30.4-16.6c8.4-7.2,15.2-15.8,20.3-25.9c5.1-10.1,8.6-22.9,10.5-38.5   h42.8v76.5h71.8v47.4h-71.8v77.5c0,17.5,0.9,28.8,2.8,33.7c1.9,5,5.3,9,10.4,11.9c6.7,4,14.3,6,22.9,6c15.3,0,30.5-5,45.7-14.9   V391.5L347.8,391.5z"
      fill="#FFFFFF"
    />
  </g>
</svg>
